<svg xmlns="http://www.w3.org/2000/svg" viewBox="0 0 1200 630" role="img" aria-labelledby="title desc">
  <title id="title">smoketest</title>
  <desc id="desc">Social card for the smoketest cross-provider coding assistant.</desc>
  <rect width="1200" height="630" fill="#0c0e0d"/>
  <path fill="#171a18" d="M0 0h1200v18H0z"/>
  <g transform="translate(76 173) scale(4.4)">
    <rect width="64" height="64" rx="16" fill="#171a18"/>
    <path fill="#666b66" d="M39.5 55.5c9.7-.8 16.5-6.2 16.5-14.1 0-5.2-2.8-8.2-6.5-11.2-2.6-2.1-2.6-4.8-.5-7.4 3.2-4 2-9.8-2.8-14.3.5 5.2-1.8 8.4-5.8 10.5-4.8 2.5-6.4 6.4-4.2 10.3 1.5 2.7 4.8 4 5.8 7.1 1.3 4-1.4 7.5-5.2 9.3l2.7 9.8Z"/>
    <path fill="#eeeae0" fill-rule="evenodd" d="m24.2 10-8.3 15h4.6L13 37.2h5.2L9 51.5h12.2V57h6v-5.5h12.2l-9.2-14.3h5.2L28 25h4.5L24.2 10Z" clip-rule="evenodd"/>
    <path fill="#d2764e" d="M9 51.5h30.4L36.5 56H9v-4.5Z"/>
  </g>
  <text x="420" y="292" fill="#e8e7df" font-family="Georgia, 'Times New Roman', serif" font-size="92" font-style="italic" font-weight="700">smoketest</text>
  <text x="428" y="351" fill="#969a91" font-family="Inter, Arial, sans-serif" font-size="16" font-weight="700" letter-spacing="3.2">CROSS-PROVIDER CODING ASSISTANT</text>
  <path stroke="#2e332f" stroke-width="2" d="M428 394h674"/>
  <path stroke="#d2764e" stroke-width="7" d="M428 394h96"/>
  <text x="428" y="452" fill="#ff9b63" font-family="ui-monospace, monospace" font-size="20">RESPONSES API · ONE FOCUSED WORKSPACE</text>
</svg>
