<svg xmlns="http://www.w3.org/2000/svg" viewBox="0 0 64 64" role="img" aria-labelledby="title">
  <title id="title">smoketest transparent mark for light surfaces</title>
  <path fill="#858880" d="M39.5 55.5c9.7-.8 16.5-6.2 16.5-14.1 0-5.2-2.8-8.2-6.5-11.2-2.6-2.1-2.6-4.8-.5-7.4 3.2-4 2-9.8-2.8-14.3.5 5.2-1.8 8.4-5.8 10.5-4.8 2.5-6.4 6.4-4.2 10.3 1.5 2.7 4.8 4 5.8 7.1 1.3 4-1.4 7.5-5.2 9.3l2.7 9.8Z"/>
  <path fill="#1d2420" fill-rule="evenodd" d="m24.2 10-8.3 15h4.6L13 37.2h5.2L9 51.5h12.2V57h6v-5.5h12.2l-9.2-14.3h5.2L28 25h4.5L24.2 10Z" clip-rule="evenodd"/>
  <path fill="#ad583f" d="M9 51.5h30.4L36.5 56H9v-4.5Z"/>
</svg>
